<?xml version="1.0" encoding="utf-8"?><svg viewBox="0 0 512 512" xmlns="http://www.w3.org/2000/svg" xmlns:xlink="http://www.w3.org/1999/xlink"><style>:root>svg{display:none}:root>svg:target{display:block}</style><svg viewBox="0 0 10 6" id="arrow-down" xmlns="http://www.w3.org/2000/svg"><path d="M5.22 5.07l3.69-3.701a.31.31 0 00-.44-.438L5 4.411 1.53.931a.31.31 0 10-.44.438l3.69 3.7a.31.31 0 00.44 0z"/></svg><svg fill="none" viewBox="0 0 11 19" id="arrow-right" xmlns="http://www.w3.org/2000/svg"><path d="M9.967 9.015L2.122 1.192a.658.658 0 00-.929.93l7.379 7.359-7.379 7.358a.657.657 0 10.929.93l7.845-7.823a.657.657 0 000-.93z" fill="#124570" stroke="#124570" stroke-width=".9"/></svg><svg fill="none" viewBox="0 0 22 22" id="calendar" xmlns="http://www.w3.org/2000/svg"><path d="M18.772 21.083H3.227a2.313 2.313 0 01-2.311-2.31V4.907a2.313 2.313 0 012.31-2.31h15.546a2.313 2.313 0 012.31 2.31v13.864a2.313 2.313 0 01-2.31 2.311zM3.227 3.858c-.58 0-1.05.47-1.05 1.05v13.864c0 .58.47 1.05 1.05 1.05h15.545c.579 0 1.05-.47 1.05-1.05V4.908c0-.58-.471-1.05-1.05-1.05H3.227z" fill="#124570" stroke="#124570" stroke-width=".3"/><path d="M2.405 9.367h17.187c.383 0 .773-.256.773-.659 0-.402-.39-.658-.773-.658H2.405c-.383 0-.773.256-.773.658 0 .403.39.659.773.659z" fill="#124570" stroke="#124570" stroke-width=".4"/><path d="M5.747 5.958a.63.63 0 01-.63-.63V1.547a.63.63 0 011.26 0v3.781a.63.63 0 01-.63.63zM16.251 5.958a.63.63 0 01-.63-.63V1.547a.63.63 0 011.26 0v3.781a.63.63 0 01-.63.63z" fill="#124570" stroke="#124570" stroke-width=".3"/></svg><svg fill="none" viewBox="0 0 15 11" id="check" xmlns="http://www.w3.org/2000/svg"><path d="M14.538.46a1.584 1.584 0 00-2.233 0L5.526 7.206l-2.83-2.817a1.584 1.584 0 00-2.234 0 1.566 1.566 0 000 2.222L4.41 10.54c.308.307.712.46 1.116.46.404 0 .809-.153 1.117-.46l7.895-7.858a1.566 1.566 0 000-2.222z" fill="#124570"/></svg><svg fill="none" viewBox="0 0 35 34" id="facebook" xmlns="http://www.w3.org/2000/svg"><path d="M34.61 17C34.61 7.795 26.95.333 17.5.333S.389 7.795.389 17c0 8.319 6.257 15.214 14.437 16.464V21.817h-4.344V17h4.344v-3.672c0-4.177 2.555-6.485 6.463-6.485 1.872 0 3.83.326 3.83.326v4.102h-2.157c-2.126 0-2.789 1.284-2.789 2.602V17h4.746l-.759 4.817h-3.987v11.647c8.18-1.25 14.438-8.145 14.438-16.464z" fill="#1877F2"/></svg><svg viewBox="0 0 19 17" id="heart" xmlns="http://www.w3.org/2000/svg"><path d="M8.808 3.613l.527.962.526-.962c.283-.516.753-1.206 1.442-1.739l-.367-.475.367.475a3.784 3.784 0 012.37-.82c2.428 0 4.318 1.977 4.318 4.733 0 1.458-.577 2.71-1.68 4.04-1.117 1.35-2.729 2.726-4.739 4.438-.674.575-1.44 1.228-2.237 1.925-.797-.696-1.562-1.349-2.236-1.923l-.001-.001c-2.01-1.713-3.622-3.09-4.74-4.438-1.103-1.33-1.68-2.583-1.68-4.04 0-2.757 1.89-4.735 4.318-4.735.868 0 1.66.272 2.37.821l.322-.416-.322.416c.69.533 1.16 1.223 1.442 1.74z"/></svg><svg fill="none" viewBox="0 0 9 17" id="lightning" xmlns="http://www.w3.org/2000/svg"><path d="M8.49 1.034a.469.469 0 00-.408-.237H2.457a.469.469 0 00-.454.355L.128 8.683a.467.467 0 00.454.583h2.136L.143 16.163a.47.47 0 00.818.44l7.5-10.343a.469.469 0 00-.379-.744H6.098l2.386-4.01a.469.469 0 00.006-.472z" fill="#FFA800"/></svg><svg fill="none" viewBox="0 0 26 26" id="location" xmlns="http://www.w3.org/2000/svg"><path d="M21.63 4.52C19.645 1.649 16.5 0 13 0 9.5 0 6.355 1.648 4.37 4.52 2.395 7.38 1.94 10.998 3.148 14.195c.323.873.837 1.721 1.524 2.516l7.636 8.97a.909.909 0 001.384 0l7.635-8.967c.69-.8 1.203-1.647 1.523-2.513 1.211-3.203.755-6.821-1.22-9.68zm-.482 9.043c-.247.668-.651 1.33-1.2 1.964 0 .002-.002.004-.003.005L13 23.69l-6.948-8.162c-.548-.635-.952-1.295-1.201-1.97-1-2.644-.62-5.635 1.015-8.002C7.506 3.18 10.106 1.818 13 1.818s5.494 1.362 7.134 3.737c1.636 2.367 2.016 5.358 1.014 8.008z" fill="#124570"/><path d="M13.001 5.394a5.097 5.097 0 00-5.09 5.09A5.096 5.096 0 0013 15.577a5.096 5.096 0 005.091-5.091 5.097 5.097 0 00-5.09-5.091zm0 8.363a3.276 3.276 0 01-3.273-3.272 3.277 3.277 0 013.273-3.273 3.277 3.277 0 013.273 3.273A3.277 3.277 0 0113 13.757z" fill="#124570"/></svg><svg fill="none" viewBox="0 0 28 22" id="mail" xmlns="http://www.w3.org/2000/svg"><path d="M25.54.336H2.46A2.465 2.465 0 000 2.796v16.407c0 1.352 1.1 2.461 2.46 2.461h23.08c1.35 0 2.46-1.1 2.46-2.46V2.796C28 1.445 26.9.336 25.54.336zm-.34 1.64L14.051 13.125 2.81 1.977h22.39zM1.64 18.864V3.13l7.902 7.833-7.901 7.901zm1.16 1.16l7.907-7.906 2.77 2.747a.82.82 0 001.158-.003l2.7-2.7 7.864 7.862H2.801zm23.56-1.16L18.495 11l7.863-7.863v15.726z" fill="#124570"/></svg><svg viewBox="0 0 512 512" id="pay" xmlns="http://www.w3.org/2000/svg"><path d="M458.667 85.333H53.333C23.936 85.333 0 109.269 0 138.667v234.667c0 29.397 23.936 53.333 53.333 53.333h405.333c29.397 0 53.333-23.936 53.333-53.333V138.667c.001-29.398-23.935-53.334-53.332-53.334zm32 288c0 17.643-14.357 32-32 32H53.333c-17.643 0-32-14.357-32-32V138.667c0-17.643 14.357-32 32-32h405.333c17.643 0 32 14.357 32 32v234.666z" data-original="#000000" class="jactive-path" data-old_color="#000000" fill="#124570"/><path d="M501.333 149.333H10.667C4.779 149.333 0 154.112 0 160v64c0 5.888 4.779 10.667 10.667 10.667h490.667c5.888 0 10.667-4.779 10.667-10.667v-64c-.001-5.888-4.78-10.667-10.668-10.667zm-10.666 64H21.333v-42.667h469.333v42.667zM202.667 298.667h-128c-5.888 0-10.667 4.779-10.667 10.667S68.779 320 74.667 320h128c5.888 0 10.667-4.779 10.667-10.667s-4.779-10.666-10.667-10.666zM202.667 341.333h-128C68.779 341.333 64 346.112 64 352s4.779 10.667 10.667 10.667h128c5.888 0 10.667-4.779 10.667-10.667-.001-5.888-4.779-10.667-10.667-10.667zM416 277.333h-21.333c-17.643 0-32 14.357-32 32v21.333c0 17.643 14.357 32 32 32H416c17.643 0 32-14.357 32-32v-21.333c0-17.642-14.357-32-32-32zm10.667 53.334c0 5.888-4.779 10.667-10.667 10.667h-21.333c-5.888 0-10.667-4.779-10.667-10.667v-21.333c0-5.888 4.779-10.667 10.667-10.667H416c5.888 0 10.667 4.779 10.667 10.667v21.333z" data-original="#000000" class="jactive-path" data-old_color="#000000" fill="#124570"/></svg><svg fill="none" viewBox="0 0 34 30" id="pay1" xmlns="http://www.w3.org/2000/svg"><g filter="url(#kfilter0_d)"><g clip-path="url(#kclip0)" fill="#124570"><path d="M27.292 4.333H6.708A2.712 2.712 0 004 7.043v11.917a2.712 2.712 0 002.708 2.708h20.584A2.712 2.712 0 0030 18.959V7.042a2.712 2.712 0 00-2.708-2.708zm1.625 14.625c0 .896-.73 1.626-1.625 1.626H6.708c-.896 0-1.625-.73-1.625-1.625V7.042c0-.896.73-1.625 1.625-1.625h20.584c.896 0 1.625.729 1.625 1.625v11.917z"/><path d="M29.458 7.583H4.542A.542.542 0 004 8.126v3.25c0 .3.243.542.542.542h24.916a.542.542 0 00.542-.542v-3.25a.542.542 0 00-.542-.542zm-.541 3.25H5.083V8.668h23.834v2.167zM14.292 15.166h-6.5a.542.542 0 000 1.084h6.5a.542.542 0 000-1.084zM14.292 17.334h-6.5a.542.542 0 000 1.083h6.5a.542.542 0 000-1.084zM25.126 14.084h-1.083c-.896 0-1.625.729-1.625 1.625v1.083c0 .896.729 1.625 1.625 1.625h1.083c.896 0 1.625-.73 1.625-1.625v-1.084c0-.895-.729-1.624-1.625-1.624zm.542 2.708a.542.542 0 01-.542.541h-1.083a.542.542 0 01-.542-.541v-1.084c0-.299.243-.541.542-.541h1.083c.3 0 .542.242.542.542v1.083z"/></g></g><defs><clipPath id="kclip0"><path fill="#fff" d="M4 0h26v26H4z"/></clipPath><filter id="kfilter0_d" x="0" y="0" width="34" height="34" filterUnits="userSpaceOnUse" color-interpolation-filters="sRGB"><feFlood flood-opacity="0" result="BackgroundImageFix"/><feColorMatrix in="SourceAlpha" values="0 0 0 0 0 0 0 0 0 0 0 0 0 0 0 0 0 0 127 0"/><feOffset dy="4"/><feGaussianBlur stdDeviation="2"/><feColorMatrix values="0 0 0 0 0 0 0 0 0 0 0 0 0 0 0 0 0 0 0.1 0"/><feBlend in2="BackgroundImageFix" result="effect1_dropShadow"/><feBlend in="SourceGraphic" in2="effect1_dropShadow" result="shape"/></filter></defs></svg><svg fill="none" viewBox="0 0 20 24" id="person" xmlns="http://www.w3.org/2000/svg"><path d="M10 11c1.374 0 2.563-.493 3.535-1.465C14.507 8.563 15 7.374 15 6s-.493-2.563-1.465-3.535C12.563 1.493 11.374 1 10 1s-2.563.493-3.535 1.465C5.493 3.437 5 4.626 5 6s.493 2.563 1.465 3.535C7.437 10.507 8.627 11 10 11zM7.325 3.325c.746-.746 1.62-1.108 2.675-1.108 1.054 0 1.929.362 2.675 1.108.746.746 1.108 1.621 1.108 2.675 0 1.054-.362 1.929-1.108 2.675-.746.746-1.621 1.108-2.675 1.108-1.054 0-1.929-.362-2.675-1.108C6.58 7.929 6.216 7.054 6.216 6c0-1.054.363-1.93 1.11-2.675z" fill="#124570" stroke="#124570" stroke-width=".2"/><path d="M18.956 17.637c-.029-.453-.088-.946-.174-1.467-.088-.525-.2-1.021-.336-1.475a7.584 7.584 0 00-.563-1.375 5.16 5.16 0 00-.85-1.191 3.723 3.723 0 00-1.22-.825A3.956 3.956 0 0014.254 11c-.22 0-.433.097-.844.386-.253.177-.55.383-.88.61-.282.194-.665.375-1.138.54-.462.16-.93.242-1.393.242-.462 0-.93-.082-1.392-.243-.472-.164-.855-.345-1.138-.539-.327-.225-.623-.43-.88-.61-.411-.289-.624-.386-.844-.386-.561 0-1.086.102-1.558.304-.475.202-.886.48-1.221.825-.32.33-.607.73-.85 1.191a7.59 7.59 0 00-.563 1.375c-.135.454-.247.95-.335 1.475-.087.52-.146 1.014-.175 1.467-.029.444-.043.905-.043 1.371 0 1.212.358 2.193 1.064 2.916.697.714 1.62 1.076 2.742 1.076h10.388c1.122 0 2.044-.362 2.742-1.076.706-.723 1.064-1.704 1.064-2.916 0-.468-.015-.93-.044-1.371zm-1.892 3.302c-.46.471-1.072.7-1.87.7H4.806c-.798 0-1.41-.229-1.87-.7-.452-.463-.672-1.095-.672-1.931 0-.435.014-.864.04-1.277.026-.404.08-.849.158-1.32.078-.467.177-.905.295-1.3.113-.38.267-.757.459-1.12a3.83 3.83 0 01.624-.88c.217-.223.49-.405.812-.543.298-.126.632-.196.996-.206.044.025.123.073.25.163.26.182.56.39.891.618.374.256.855.487 1.43.687a5.416 5.416 0 001.78.308c.595 0 1.194-.104 1.782-.308.575-.2 1.056-.431 1.43-.688.338-.233.63-.435.89-.617.127-.09.206-.138.25-.163.364.01.698.08.996.206.322.138.595.32.812.543.232.24.442.535.625.881.19.362.345.739.458 1.118.118.397.217.834.295 1.3.079.473.132.918.158 1.322v0c.027.41.04.84.04 1.276 0 .837-.22 1.468-.67 1.93z" fill="#124570" stroke="#124570" stroke-width=".2"/></svg><svg fill="none" viewBox="0 0 19 17" id="photo" xmlns="http://www.w3.org/2000/svg"><path d="M17.96 13.746h-.017v.1c0 .298-.116.562-.314.76a1.06 1.06 0 01-.76.314H2.13a1.06 1.06 0 01-.76-.314 1.06 1.06 0 01-.314-.76V4.852c0-.298.116-.562.314-.76a1.06 1.06 0 01.76-.314h3.486a.586.586 0 00.588-.588v-.524a.61.61 0 01.169-.435.61.61 0 01.435-.169h5.4a.61.61 0 01.435.17.61.61 0 01.17.434v.524c0 .326.261.588.587.588h3.486c.298 0 .561.115.76.314.198.198.314.462.314.76v8.894zm.479-10.464a2.143 2.143 0 00-1.57-.661h-2.9a1.716 1.716 0 00-.516-1.182 1.752 1.752 0 00-1.244-.516H6.791A1.763 1.763 0 005.012 2.62h-2.88c-.624 0-1.173.245-1.571.662-.396.396-.661.962-.661 1.569v8.994c0 .623.246 1.173.662 1.57.397.397.963.661 1.57.661h14.737c.623 0 1.172-.245 1.57-.662.396-.396.661-.962.661-1.569V4.852c0-.623-.245-1.172-.661-1.57z" fill="#124570" stroke="#124570" stroke-width=".2"/><path d="M12.453 9.634v.002a2.876 2.876 0 01-.86 2.09 3.008 3.008 0 01-2.093.86 3.008 3.008 0 01-2.093-.86 2.94 2.94 0 01-.86-2.092c0-.815.337-1.553.861-2.093a2.94 2.94 0 012.092-.86c.814 0 1.553.338 2.092.861a2.94 2.94 0 01.86 2.092zM9.5 5.606c-1.11 0-2.12.457-2.838 1.174a4.019 4.019 0 000 5.675 4.019 4.019 0 005.675 0 4.019 4.019 0 000-5.675A4.019 4.019 0 009.5 5.606zM15.932 6.758a.985.985 0 100-1.97.985.985 0 000 1.97z" fill="#124570" stroke="#124570" stroke-width=".2"/></svg><svg fill="none" viewBox="0 0 13 18" id="pin" xmlns="http://www.w3.org/2000/svg"><path d="M6.2.797A5.872 5.872 0 00.334 6.663c0 4.065 5.871 11.009 5.871 11.009s5.86-7.144 5.86-11.01A5.872 5.872 0 006.2.798zM7.97 8.38a2.495 2.495 0 01-1.77.732c-.641 0-1.282-.244-1.77-.732a2.506 2.506 0 010-3.54 2.486 2.486 0 011.77-.733A2.506 2.506 0 017.97 8.38z" fill="#124570"/></svg><svg viewBox="0 0 16 16" id="search" xmlns="http://www.w3.org/2000/svg"><path d="M11.742 10.329A6.457 6.457 0 0013 6.5c0-3.584-2.916-6.5-6.5-6.5a6.507 6.507 0 00-6.5 6.5c0 3.584 2.916 6.5 6.5 6.5a6.457 6.457 0 003.828-1.258L14.586 16 16 14.587l-4.258-4.258zM6.5 11A4.505 4.505 0 012 6.5c0-2.481 2.019-4.5 4.5-4.5S11 4.02 11 6.501s-2.019 4.5-4.5 4.5z"/></svg><svg fill="none" viewBox="0 0 15 15" id="star" xmlns="http://www.w3.org/2000/svg"><g filter="url(#pfilter0_d)" clip-path="url(#pclip0)"><path d="M3.898 9.759l-.739 4.53c-.059.36.325.63.643.454l3.845-2.125 3.844 2.126a.438.438 0 00.643-.454l-.739-4.53 3.127-3.205a.438.438 0 00-.247-.738l-4.304-.658L8.042 1.05c-.144-.306-.647-.306-.792 0L5.322 5.16l-4.304.657a.437.437 0 00-.247.738L3.898 9.76z" fill="#FFA800"/></g><defs><clipPath id="pclip0"><path fill="#fff" d="M.646.797h14v14h-14z"/></clipPath><filter id="pfilter0_d" x="-9.354" y="-5.18" width="34" height="33.979" filterUnits="userSpaceOnUse" color-interpolation-filters="sRGB"><feFlood flood-opacity="0" result="BackgroundImageFix"/><feColorMatrix in="SourceAlpha" values="0 0 0 0 0 0 0 0 0 0 0 0 0 0 0 0 0 0 127 0"/><feOffset dy="4"/><feGaussianBlur stdDeviation="5"/><feColorMatrix values="0 0 0 0 0.145833 0 0 0 0 0.145226 0 0 0 0 0.145226 0 0 0 1 0"/><feBlend in2="BackgroundImageFix" result="effect1_dropShadow"/><feBlend in="SourceGraphic" in2="effect1_dropShadow" result="shape"/></filter></defs></svg></svg>